<svg aria-hidden="true" style="position : absolute ;width : 0;height: 0" xmlns="http://www.w3.org/2000/svg" overflow="hidden"> <defs><symbol id="icon-twitter" viewBox="0 0 32 32"><path d="M32 6.078c-1.1.493-2.376.857-3.713 1.028l-.068.007a6.556 6.556 0 002.873-3.579l.013-.046a12.88 12.88 0 01-4.076 1.573l-.084.014A6.558 6.558 0 0015.6 9.557v.004c0 .52.043 1.021.152 1.496-5.454-.266-10.28-2.88-13.522-6.861a6.524 6.524 0 00-.902 3.313v.001a6.57 6.57 0 002.914 5.451 6.453 6.453 0 01-2.994-.823l.033.017v.072a6.592 6.592 0 005.213 6.44l.043.008a6.403 6.403 0 01-1.662.215h-.061.003c-.419 0-.843-.024-1.242-.112.85 2.598 3.261 4.509 6.13 4.57a13.093 13.093 0 01-8.122 2.8H1.57h.001-.062c-.531 0-1.055-.034-1.569-.099l.061.006c2.826 1.846 6.287 2.944 10.004 2.944h.063-.003c12.072 0 18.672-10 18.672-18.669 0-.288-.01-.57-.024-.848a13.203 13.203 0 003.258-3.355l.03-.047z"/></symbol><symbol id="icon-smartphone" viewBox="0 0 20 32"><path d="M17 0H3C1.346 0 0 1.346 0 3v26c0 1.654 1.346 3 3 3h14c1.654 0 3-1.346 3-3V3c0-1.654-1.346-3-3-3zM3 2h14a1 1 0 011 1v21H2V3a1 1 0 011-1zm14 28H3a1 1 0 01-1-1v-3h16v3a1 1 0 01-1 1z"/><path d="M10.708 27.478a.889.889 0 01.001 1.319l-.001.001a1.048 1.048 0 01-1.417 0l.001.001a.889.889 0 01-.001-1.319l.001-.001a1.048 1.048 0 011.417 0l-.001-.001z"/></symbol><symbol id="icon-company-6" viewBox="0 0 89 46"><path d="M44.7405 21.3533C44.3226 20.7432 44.1226 20.022 44.1701 19.2962V16.3135C44.1701 15.3992 44.3592 14.7044 44.7373 14.2291C45.1155 13.7537 45.7651 13.517 46.686 13.5191C47.5513 13.5191 48.1656 13.7213 48.5288 14.1259C48.925 14.6421 49.1178 15.2733 49.0736 15.91V16.6109H47.5256V15.9009C47.5311 15.6685 47.5161 15.4361 47.4808 15.2061C47.4585 15.0488 47.3806 14.9033 47.2596 14.7934C47.1007 14.675 46.9004 14.6175 46.6988 14.6326C46.4867 14.6176 46.2764 14.6782 46.1091 14.8025C45.9742 14.9243 45.8844 15.0838 45.8527 15.2576C45.8083 15.5011 45.7879 15.7479 45.7918 15.995V19.6147C45.7674 19.964 45.8357 20.3134 45.9905 20.6312C46.0675 20.7387 46.1744 20.824 46.2994 20.8775C46.4244 20.9311 46.5626 20.9508 46.6988 20.9346C46.8971 20.9501 47.0939 20.8912 47.2468 20.7708C47.373 20.6523 47.4541 20.4976 47.4776 20.3308C47.5137 20.0907 47.5298 19.8482 47.5256 19.6056V18.8714H49.0736V19.5419C49.1171 20.2056 48.929 20.8644 48.5384 21.4171C48.1827 21.86 47.5769 22.0815 46.686 22.0815C45.795 22.0815 45.1219 21.8449 44.7405 21.3533Z"/><path d="M51.1857 21.3837C50.7947 20.9194 50.5992 20.2428 50.5992 19.3477V16.2104C50.5992 15.3244 50.7947 14.6538 51.1857 14.1987C51.5767 13.7436 52.2305 13.517 53.1471 13.5191C54.0573 13.5191 54.7079 13.7456 55.0989 14.1987C55.4899 14.6538 55.6886 15.3244 55.6886 16.2104V19.3477C55.6886 20.2337 55.4899 20.9134 55.0925 21.3806C54.6951 21.8479 54.0477 22.0815 53.1471 22.0815C52.2466 22.0815 51.5799 21.8449 51.1857 21.3837ZM53.8682 20.6312C54.0083 20.3404 54.072 20.0219 54.0541 19.7027V15.8615C54.0721 15.5485 54.0094 15.2361 53.8714 14.9512C53.7929 14.8414 53.6833 14.7547 53.5553 14.7011C53.4272 14.6474 53.2858 14.629 53.1471 14.6478C53.0081 14.6294 52.8664 14.6481 52.7379 14.7017C52.6094 14.7553 52.4992 14.8417 52.4196 14.9512C52.2787 15.2353 52.2148 15.5481 52.2337 15.8615V19.7209C52.2143 20.0402 52.2781 20.3591 52.4196 20.6494C52.5099 20.7473 52.6212 20.8257 52.7461 20.8795C52.8711 20.9332 53.0067 20.961 53.1439 20.961C53.2812 20.961 53.4168 20.9332 53.5417 20.8795C53.6666 20.8257 53.778 20.7473 53.8682 20.6494V20.6312Z"/><path d="M57.5505 13.6106H59.2171L60.4702 19.3992L61.7522 13.6106H63.3739L63.5374 21.9658H62.3387L62.2105 16.159L60.9734 21.9658H60.0119L58.7299 16.1378L58.6114 21.9658H57.3999L57.5505 13.6106Z"/><path d="M65.4059 13.6106H68.0018C69.4974 13.6106 70.2452 14.4014 70.2452 15.9831C70.2452 17.498 69.4579 18.2544 67.8832 18.2524H66.9987V21.9658H65.3962L65.4059 13.6106ZM67.6236 17.1814C67.782 17.2005 67.9428 17.1867 68.0949 17.1411C68.2471 17.0956 68.387 17.0193 68.505 16.9175C68.6887 16.6353 68.7698 16.3039 68.7357 15.974C68.7441 15.7191 68.7183 15.4642 68.6588 15.2155C68.636 15.1324 68.5959 15.0545 68.5408 14.9863C68.4858 14.918 68.417 14.8608 68.3383 14.8181C68.1159 14.7171 67.87 14.6711 67.6236 14.6846H67.0019V17.1814H67.6236Z"/><path d="M72.5561 13.6106H74.2771L76.043 21.9658H74.5495L74.2002 20.0393H72.665L72.3061 21.9658H70.7902L72.5561 13.6106ZM74.0271 19.0715L73.4278 15.5644L72.8285 19.0715H74.0271Z"/><path d="M77.4691 13.6106H78.5909L80.7382 18.3768V13.6106H82.0682V21.9658H81.001L78.8409 16.9903V21.9658H77.4659L77.4691 13.6106Z"/><path d="M85.1834 18.7801L83.3983 13.6223H84.9014L85.9911 16.9354L87.0134 13.6223H88.4845L86.7218 18.7801V21.9658H85.1834V18.7801Z"/><path d="M47.2148 25.6189V26.0558H45.9072V29.4509H45.3592V26.0558H44.0452V25.6189H47.2148Z"/><path d="M51.3138 29.4512H50.8908C50.8478 29.4537 50.8054 29.4407 50.7722 29.4148C50.7402 29.3925 50.7157 29.362 50.7017 29.3268L50.3235 28.4166H48.5095L48.1313 29.3268C48.1206 29.3649 48.1008 29.4001 48.0736 29.43C48.0401 29.4554 47.9979 29.4683 47.955 29.4664H47.532L49.1345 25.6345H49.6921L51.3138 29.4512ZM48.6601 28.0283H50.1729L49.5319 26.4688C49.4846 26.3509 49.445 26.2303 49.4133 26.1078C49.3909 26.1806 49.3716 26.2504 49.3524 26.3111L49.2947 26.4719L48.6601 28.0283Z"/><path d="M54.0765 29.0748C54.1769 29.0798 54.2774 29.0798 54.3778 29.0748C54.4644 29.0664 54.5502 29.0512 54.6342 29.0293C54.7127 29.0111 54.7898 28.9878 54.8649 28.9595C54.9354 28.9322 55.0059 28.8988 55.0797 28.8655V28.0037H54.4387C54.4228 28.0046 54.407 28.0023 54.3921 27.9971C54.3772 27.9919 54.3636 27.9838 54.3521 27.9734C54.3416 27.9648 54.3333 27.954 54.3277 27.9419C54.3222 27.9299 54.3196 27.9167 54.3201 27.9036V27.6093H55.5636V29.0779C55.4621 29.1466 55.3549 29.2075 55.2431 29.2599C55.1288 29.3133 55.0098 29.357 54.8874 29.3904C54.7563 29.4269 54.6223 29.4533 54.4867 29.4693C54.3314 29.4856 54.1752 29.4937 54.0188 29.4936C53.7424 29.4958 53.4682 29.4473 53.2112 29.351C52.9712 29.2596 52.7532 29.1234 52.5702 28.9504C52.3918 28.7757 52.2513 28.5695 52.1568 28.3436C52.0557 28.0896 52.0057 27.8199 52.0093 27.5486C52.006 27.2755 52.0548 27.0041 52.1536 26.7475C52.2457 26.5204 52.3865 26.3138 52.567 26.1406C52.7499 25.9682 52.968 25.833 53.208 25.7431C53.4824 25.6454 53.7737 25.597 54.0669 25.6005C54.2161 25.6003 54.3651 25.6115 54.5124 25.6339C54.6426 25.654 54.7704 25.6865 54.8938 25.731C55.0059 25.7709 55.1133 25.8217 55.2143 25.8827C55.3125 25.9426 55.4057 26.0095 55.4931 26.083L55.3393 26.3197C55.3272 26.3413 55.3093 26.3594 55.2873 26.3722C55.2653 26.3851 55.2401 26.392 55.2143 26.3925C55.1788 26.3914 55.1444 26.3809 55.1149 26.3621C55.0668 26.3379 55.0156 26.3075 54.9579 26.2711C54.8897 26.2307 54.8179 26.1961 54.7431 26.1679C54.6476 26.1317 54.549 26.1032 54.4483 26.083C54.314 26.0596 54.1777 26.0484 54.0413 26.0496C53.8298 26.0474 53.6199 26.0834 53.4227 26.1558C53.2444 26.2235 53.0836 26.3271 52.9516 26.4592C52.8188 26.597 52.7173 26.7592 52.6535 26.9356C52.5103 27.3507 52.5103 27.7981 52.6535 28.2131C52.7237 28.3933 52.8328 28.5576 52.974 28.6955C53.1055 28.827 53.265 28.9304 53.4419 28.999C53.6457 29.0652 53.8617 29.091 54.0765 29.0748Z"/><path d="M59.1851 29.014H60.9351V29.4509H58.6499V25.6189H59.198L59.1851 29.014Z"/><path d="M62.7555 29.4509H62.2074V25.6189H62.7555V29.4509Z"/><path d="M64.7938 25.6371C64.8263 25.6547 64.8547 25.6785 64.8771 25.7069L67.2199 28.5955C67.2167 28.5501 67.2167 28.5045 67.2199 28.459C67.2199 28.4165 67.2199 28.374 67.2199 28.3346V25.6038H67.6974V29.4512H67.4218C67.3809 29.4543 67.34 29.447 67.3032 29.43C67.2699 29.4109 67.2406 29.3862 67.2167 29.3571L64.8771 26.4716C64.8771 26.5171 64.8771 26.5595 64.8771 26.602C64.8771 26.6445 64.8771 26.684 64.8771 26.7204V29.4512H64.4188V25.6189H64.7041C64.735 25.619 64.7656 25.6252 64.7938 25.6371Z"/><path d="M71.7324 25.6189V26.0406H69.7903V27.3059H71.3639V27.7124H69.7903V29.0202H71.7324V29.4419H69.2262V25.6189H71.7324Z"/><path d="M14.3035 1.95391L38.6385 8.49527V31.4173L14.3035 24.879V1.95391ZM12.7427 0V25.9925L40.1961 33.3743V7.38482L12.7427 0Z"/><path d="M27.4565 45.4402L0 38.0522V12.0625L27.4565 19.4474V45.4402Z"/><path d="M13.1978 1.65958L37.2155 8.11891L27.0014 17.7912L2.98057 11.3288L13.1978 1.65958ZM12.7427 0L0 12.0631L27.4565 19.4478L40.196 7.38469L12.7427 0Z"/><path d="M29.0013 43.978L40.196 33.3774L29.0013 30.3647V43.978Z"/></symbol><symbol id="icon-company-5" viewBox="0 0 59 47"><path d="M4.48764 39.2778C4.71752 39.5634 4.83998 39.9212 4.83356 40.2884C4.84529 40.528 4.8032 40.7671 4.71042 40.988C4.61763 41.209 4.47652 41.4062 4.29754 41.565C3.85095 41.9037 3.29769 42.0692 2.73933 42.0313H0V35.6263H2.68323C3.21289 35.5909 3.73833 35.7413 4.16977 36.0518C4.34305 36.1974 4.48026 36.3815 4.57058 36.5895C4.6609 36.7974 4.70185 37.0236 4.69021 37.2502C4.70595 37.6035 4.59543 37.9509 4.37857 38.2296C4.17037 38.4841 3.88265 38.6605 3.56206 38.7302C3.92548 38.7968 4.25352 38.9909 4.48764 39.2778ZM1.27461 38.3109H2.42146C2.6821 38.3303 2.94097 38.2548 3.1507 38.0982C3.23681 38.0198 3.3038 37.9226 3.34649 37.8141C3.38918 37.7056 3.40643 37.5887 3.39689 37.4724C3.40499 37.3565 3.38738 37.2403 3.34535 37.1321C3.30332 37.0239 3.2379 36.9264 3.15381 36.8466C2.93781 36.6856 2.6709 36.6088 2.40276 36.6307H1.27461V38.3109ZM3.26289 40.7672C3.35493 40.6869 3.42729 40.5865 3.47432 40.4736C3.52134 40.3607 3.54178 40.2385 3.53402 40.1163C3.54104 39.9928 3.51967 39.8693 3.47158 39.7554C3.42349 39.6414 3.34995 39.5401 3.25666 39.4593C3.03228 39.2922 2.75632 39.2102 2.47755 39.2277H1.27461V40.9893H2.49313C2.7674 41.0052 3.03889 40.9269 3.26289 40.7672Z"/><path d="M9.97257 42.0313L8.47981 39.5281H7.91885V42.0313H6.63489V35.6263H9.06569C9.67841 35.5834 10.2842 35.7783 10.7579 36.1708C11.0977 36.5184 11.3026 36.9764 11.3358 37.4624C11.3689 37.9483 11.2281 38.4301 10.9387 38.821C10.6388 39.1659 10.2291 39.3959 9.77935 39.4718L11.3687 42.0313H9.97257ZM7.91885 38.6552H8.96908C9.69832 38.6552 10.0629 38.3318 10.0629 37.6852C10.0704 37.5531 10.0504 37.421 10.0043 37.2971C9.95812 37.1732 9.88684 37.0603 9.79493 36.9655C9.56448 36.7731 9.26769 36.6798 8.96908 36.7058H7.90639L7.91885 38.6552Z"/><path d="M16.9907 40.742H14.4321L13.9803 42.0311H12.634L14.9838 35.6981H16.4391L18.7795 42.0311H17.4333L16.9907 40.742ZM16.6479 39.772L15.713 37.0686L14.7781 39.772H16.6479Z"/><path d="M25.7759 42.0312H24.5013L21.6435 37.6757V42.0312H20.372V35.6262H21.6435L24.5013 40.0068V35.6262H25.7759V42.0312Z"/><path d="M33.0496 40.4981C32.7861 40.9817 32.3845 41.375 31.8965 41.6276C31.3417 41.909 30.7259 42.0477 30.1046 42.0313H27.8358V35.6263H30.1046C30.7249 35.61 31.3398 35.7453 31.8965 36.0206C32.3844 36.2674 32.7864 36.6569 33.0496 37.1376C33.3119 37.6585 33.4486 38.2341 33.4486 38.8178C33.4486 39.4016 33.3119 39.9772 33.0496 40.4981ZM31.5911 40.3448C31.9549 39.9193 32.1549 39.377 32.1549 38.8163C32.1549 38.2555 31.9549 37.7133 31.5911 37.2878C31.1514 36.9024 30.578 36.7067 29.9955 36.7433H29.1104V40.8892H29.9955C30.578 40.9258 31.1514 40.7302 31.5911 40.3448Z"/><path d="M17.7885 0C17.7885 0 34.2401 6.236 33.891 15.2599V30.5229C33.891 30.5229 17.4519 24.2838 17.7947 15.2599L17.7885 0Z"/><path d="M48.5475 26.9496C51.6546 24.8028 55.2485 23.4731 59 23.0822V18.3043C54.6773 19.977 51.0103 23.0101 48.5475 26.9496Z"/><path d="M46.6808 28.389C49.2239 23.2478 53.6325 19.2805 59 17.3032V3.53577C59 3.53577 35.5708 12.4189 36.0663 25.2695V47C36.0663 47 37.1103 46.6027 38.7526 45.858C38.7526 45.1633 38.7526 44.4625 38.8274 43.7584C39.3123 37.7926 42.1371 32.2643 46.6808 28.389Z"/><path d="M44.4526 36.4617C44.5756 34.9546 44.8502 33.4639 45.2722 32.0123C42.443 35.3589 40.7297 39.5117 40.3732 43.8867C40.3389 44.2997 40.3202 44.7127 40.3109 45.1383C41.6416 44.4968 43.1904 43.6958 44.8172 42.754C44.402 40.6842 44.2793 38.5659 44.4526 36.4617Z"/><path d="M45.3844 36.54C45.2284 38.4437 45.3259 40.3599 45.6742 42.2378C52.0753 38.3923 59.268 32.4504 58.9907 25.2695V24.6437C54.4173 25.1575 50.1385 27.1648 46.8117 30.3571C46.0328 32.3355 45.5517 34.4193 45.3844 36.54Z"/></symbol><symbol id="icon-company-4" viewBox="0 0 80 43"><path d="M12.402 12.8306H12.3992C10.1369 12.8306 8.30298 14.6177 8.30298 16.8223V16.8249C8.30298 19.0295 10.1369 20.8167 12.3992 20.8167H12.402C14.6643 20.8167 16.4982 19.0295 16.4982 16.8249V16.8223C16.4982 14.6177 14.6643 12.8306 12.402 12.8306Z"/><path d="M42.6368 11.5545C42.6304 8.49242 41.3795 5.55752 39.1579 3.39207C36.9363 1.22661 33.9249 0.00695286 30.7827 0V0C27.6396 0.00556265 24.6269 1.22461 22.4041 3.39022C20.1813 5.55582 18.9297 8.49151 18.9233 11.5545V28.4402C18.9233 28.4402 42.6341 25.8667 42.6368 11.5571V11.5545Z"/><path d="M-6.10352e-05 33.9823C0.005638 36.1129 0.876495 38.1547 2.42221 39.6615C3.96793 41.1683 6.06284 42.0177 8.24917 42.0239C10.435 42.0177 12.5295 41.1687 14.0752 39.6625C15.6208 38.1562 16.492 36.1151 16.4984 33.9849V22.2356C16.4984 22.2356 -6.10352e-05 24.0276 -6.10352e-05 33.9823ZM8.24917 36.0874C7.82192 36.0874 7.40427 35.964 7.04903 35.7326C6.69379 35.5013 6.41691 35.1726 6.25341 34.7879C6.08991 34.4032 6.04713 33.98 6.13048 33.5716C6.21384 33.1632 6.41957 32.7881 6.72168 32.4937C7.02379 32.1993 7.4087 31.9988 7.82773 31.9176C8.24677 31.8364 8.68111 31.8781 9.07584 32.0374C9.47056 32.1967 9.80793 32.4665 10.0453 32.8127C10.2827 33.1589 10.4094 33.5659 10.4094 33.9823C10.4104 34.2594 10.3553 34.534 10.2473 34.7903C10.1392 35.0466 9.98022 35.2796 9.77952 35.476C9.57882 35.6723 9.34033 35.828 9.07771 35.9343C8.81509 36.0406 8.53353 36.0953 8.24917 36.0953V36.0874Z"/><path d="M25.0891 34.7812H23.4016V36.5244H22.5227V32.2588H25.3V32.9707H23.4016V34.0723H25.0891V34.7812ZM29.3137 34.4883C29.3137 34.9082 29.2395 35.2764 29.0911 35.5928C28.9426 35.9092 28.7297 36.1533 28.4524 36.3252C28.177 36.4971 27.8606 36.583 27.5032 36.583C27.1497 36.583 26.8342 36.498 26.5569 36.3281C26.2795 36.1582 26.0647 35.916 25.9124 35.6016C25.76 35.2852 25.6829 34.9219 25.6809 34.5117V34.3008C25.6809 33.8809 25.7561 33.5117 25.9065 33.1934C26.0588 32.873 26.2727 32.6279 26.5481 32.458C26.8254 32.2861 27.1418 32.2002 27.4973 32.2002C27.8528 32.2002 28.1682 32.2861 28.4436 32.458C28.7209 32.6279 28.9348 32.873 29.0852 33.1934C29.2375 33.5117 29.3137 33.8799 29.3137 34.2979V34.4883ZM28.4231 34.2949C28.4231 33.8477 28.343 33.5078 28.1829 33.2754C28.0227 33.043 27.7942 32.9268 27.4973 32.9268C27.2024 32.9268 26.9749 33.042 26.8147 33.2725C26.6545 33.501 26.5735 33.8369 26.5715 34.2803V34.4883C26.5715 34.9238 26.6516 35.2617 26.8118 35.502C26.9719 35.7422 27.2024 35.8623 27.5032 35.8623C27.7981 35.8623 28.0247 35.7471 28.1829 35.5166C28.3411 35.2842 28.4211 34.9463 28.4231 34.5029V34.2949ZM32.1643 35.4053C32.1643 35.2393 32.1057 35.1123 31.9885 35.0244C31.8713 34.9346 31.6604 34.8408 31.3557 34.7432C31.051 34.6436 30.8098 34.5459 30.6321 34.4502C30.1477 34.1885 29.9055 33.8359 29.9055 33.3926C29.9055 33.1621 29.97 32.957 30.0989 32.7773C30.2297 32.5957 30.4163 32.4541 30.6584 32.3525C30.9026 32.251 31.176 32.2002 31.4788 32.2002C31.7834 32.2002 32.0549 32.2559 32.2932 32.3672C32.5315 32.4766 32.7161 32.6318 32.8469 32.833C32.9797 33.0342 33.0461 33.2627 33.0461 33.5186H32.1672C32.1672 33.3232 32.1057 33.1719 31.9827 33.0645C31.8596 32.9551 31.6868 32.9004 31.4641 32.9004C31.2493 32.9004 31.0823 32.9463 30.9631 33.0381C30.844 33.1279 30.7844 33.2471 30.7844 33.3955C30.7844 33.5342 30.8538 33.6504 30.9924 33.7441C31.1331 33.8379 31.3391 33.9258 31.6106 34.0078C32.1106 34.1582 32.4749 34.3447 32.7034 34.5674C32.9319 34.79 33.0461 35.0674 33.0461 35.3994C33.0461 35.7686 32.9065 36.0586 32.6272 36.2695C32.3479 36.4785 31.9719 36.583 31.4993 36.583C31.1711 36.583 30.8723 36.5234 30.6028 36.4043C30.3333 36.2832 30.1272 36.1182 29.9846 35.9092C29.844 35.7002 29.7737 35.458 29.7737 35.1826H30.6555C30.6555 35.6533 30.9368 35.8887 31.4993 35.8887C31.7083 35.8887 31.8713 35.8467 31.9885 35.7627C32.1057 35.6768 32.1643 35.5576 32.1643 35.4053ZM36.8547 32.9707H35.5481V36.5244H34.6692V32.9707H33.3801V32.2588H36.8547V32.9707ZM39.925 34.6758H38.2375V35.8184H40.218V36.5244H37.3586V32.2588H40.2122V32.9707H38.2375V33.9873H39.925V34.6758ZM42.3127 34.9629H41.6125V36.5244H40.7336V32.2588H42.3186C42.8225 32.2588 43.2112 32.3711 43.4846 32.5957C43.7581 32.8203 43.8948 33.1377 43.8948 33.5479C43.8948 33.8389 43.8313 34.082 43.7043 34.2773C43.5793 34.4707 43.3889 34.625 43.1331 34.7402L44.0559 36.4834V36.5244H43.1125L42.3127 34.9629ZM41.6125 34.251H42.3215C42.5422 34.251 42.7131 34.1953 42.8342 34.084C42.9553 33.9707 43.0159 33.8154 43.0159 33.6182C43.0159 33.417 42.9583 33.2588 42.843 33.1436C42.7297 33.0283 42.5549 32.9707 42.3186 32.9707H41.6125V34.251ZM46.9387 35.0215V36.5244H46.0598V32.2588H47.7239C48.0442 32.2588 48.3254 32.3174 48.5676 32.4346C48.8118 32.5518 48.9993 32.7188 49.1301 32.9355C49.261 33.1504 49.3264 33.3955 49.3264 33.6709C49.3264 34.0889 49.1829 34.4189 48.8958 34.6611C48.6106 34.9014 48.2151 35.0215 47.7092 35.0215H46.9387ZM46.9387 34.3096H47.7239C47.9563 34.3096 48.1331 34.2549 48.2542 34.1455C48.3772 34.0361 48.4387 33.8799 48.4387 33.6768C48.4387 33.4678 48.3772 33.2988 48.2542 33.1699C48.1311 33.041 47.9612 32.9746 47.7444 32.9707H46.9387V34.3096ZM52.4993 34.6758H50.8118V35.8184H52.7922V36.5244H49.9329V32.2588H52.7864V32.9707H50.8118V33.9873H52.4993V34.6758ZM56.5774 32.9707H55.2708V36.5244H54.3918V32.9707H53.1028V32.2588H56.5774V32.9707ZM59.6477 34.6758H57.9602V35.8184H59.9407V36.5244H57.0813V32.2588H59.9348V32.9707H57.9602V33.9873H59.6477V34.6758ZM62.0354 34.9629H61.3352V36.5244H60.4563V32.2588H62.0413C62.5452 32.2588 62.9338 32.3711 63.2073 32.5957C63.4807 32.8203 63.6174 33.1377 63.6174 33.5479C63.6174 33.8389 63.554 34.082 63.427 34.2773C63.302 34.4707 63.1116 34.625 62.8557 34.7402L63.7786 36.4834V36.5244H62.8352L62.0354 34.9629ZM61.3352 34.251H62.0442C62.2649 34.251 62.4358 34.1953 62.5569 34.084C62.678 33.9707 62.7385 33.8154 62.7385 33.6182C62.7385 33.417 62.6809 33.2588 62.5657 33.1436C62.4524 33.0283 62.2776 32.9707 62.0413 32.9707H61.3352V34.251ZM66.5002 35.4053C66.5002 35.2393 66.4417 35.1123 66.3245 35.0244C66.2073 34.9346 65.9963 34.8408 65.6917 34.7432C65.387 34.6436 65.1458 34.5459 64.968 34.4502C64.4836 34.1885 64.2415 33.8359 64.2415 33.3926C64.2415 33.1621 64.3059 32.957 64.4348 32.7773C64.5657 32.5957 64.7522 32.4541 64.9944 32.3525C65.2385 32.251 65.512 32.2002 65.8147 32.2002C66.1194 32.2002 66.3909 32.2559 66.6292 32.3672C66.8674 32.4766 67.052 32.6318 67.1829 32.833C67.3157 33.0342 67.3821 33.2627 67.3821 33.5186H66.5032C66.5032 33.3232 66.4417 33.1719 66.3186 33.0645C66.1956 32.9551 66.0227 32.9004 65.8 32.9004C65.5852 32.9004 65.4182 32.9463 65.2991 33.0381C65.1799 33.1279 65.1204 33.2471 65.1204 33.3955C65.1204 33.5342 65.1897 33.6504 65.3284 33.7441C65.469 33.8379 65.675 33.9258 65.9465 34.0078C66.4465 34.1582 66.8108 34.3447 67.0393 34.5674C67.2678 34.79 67.3821 35.0674 67.3821 35.3994C67.3821 35.7686 67.2424 36.0586 66.9631 36.2695C66.6838 36.4785 66.3079 36.583 65.8352 36.583C65.5071 36.583 65.2083 36.5234 64.9387 36.4043C64.6692 36.2832 64.4631 36.1182 64.3206 35.9092C64.1799 35.7002 64.1096 35.458 64.1096 35.1826H64.9915C64.9915 35.6533 65.2727 35.8887 65.8352 35.8887C66.0442 35.8887 66.2073 35.8467 66.3245 35.7627C66.4417 35.6768 66.5002 35.5576 66.5002 35.4053Z"/></symbol><symbol id="icon-company-3" viewBox="0 0 41 43"><path d="M6.34547 41.7946C6.36049 41.795 6.37527 41.7982 6.38896 41.8041C6.40265 41.81 6.41497 41.8184 6.42521 41.8289L6.63098 42.0446C6.47126 42.2191 6.27385 42.3588 6.05225 42.4539C5.79275 42.5577 5.51308 42.6078 5.23174 42.6009C4.96736 42.6061 4.7047 42.5594 4.4601 42.4637C4.23945 42.3758 4.04121 42.2437 3.87879 42.0764C3.71303 41.9029 3.58535 41.6996 3.50326 41.4784C3.41336 41.2318 3.36898 40.9723 3.37208 40.7113C3.36843 40.4486 3.41641 40.1875 3.51355 39.9417C3.6034 39.7191 3.73894 39.5158 3.91223 39.3436C4.08787 39.1749 4.29797 39.0423 4.52954 38.9539C4.78288 38.8604 5.05265 38.8138 5.32433 38.8167C5.5767 38.8108 5.82773 38.8534 6.06254 38.9417C6.26625 39.0259 6.4533 39.1428 6.61555 39.2873L6.44321 39.5177C6.43131 39.5339 6.41651 39.548 6.39949 39.5593C6.37915 39.5726 6.35458 39.5787 6.33004 39.5765C6.30334 39.5747 6.27761 39.5663 6.25545 39.552L6.16285 39.4907L6.03424 39.4123C5.97873 39.3832 5.92114 39.3578 5.86191 39.3363C5.78562 39.3103 5.70738 39.2898 5.62785 39.275C5.52691 39.2573 5.42439 39.2491 5.32176 39.2505C5.12612 39.2482 4.93197 39.2832 4.75075 39.3534C4.58174 39.4185 4.42918 39.5171 4.3032 39.6427C4.17494 39.7762 4.0761 39.9329 4.01254 40.1034C3.9401 40.2985 3.9044 40.5043 3.90709 40.7113C3.904 40.9214 3.93969 41.1305 4.01254 41.3289C4.07531 41.498 4.17231 41.6537 4.29805 41.7872C4.41586 41.9117 4.56188 42.0089 4.72503 42.0715C4.89292 42.1379 5.07314 42.1712 5.25489 42.1696C5.35987 42.1711 5.46481 42.1646 5.56869 42.15C5.7383 42.1302 5.901 42.0741 6.04453 41.9858C6.11653 41.9405 6.18449 41.8897 6.24773 41.8338C6.27417 41.8098 6.30895 41.7958 6.34547 41.7946Z"/><path d="M12.2871 40.7108C12.2903 40.9709 12.2432 41.2292 12.1482 41.473C12.0644 41.6941 11.9323 41.8958 11.7608 42.0648C11.5892 42.2338 11.382 42.3662 11.1528 42.4533C10.6492 42.6363 10.0925 42.6363 9.58896 42.4533C9.36125 42.3648 9.15539 42.2321 8.98452 42.0636C8.81305 41.8916 8.68004 41.6882 8.59356 41.4657C8.40827 40.972 8.40827 40.4325 8.59356 39.9388C8.6813 39.7162 8.81414 39.5122 8.98452 39.3384C9.15685 39.1752 9.3626 39.0476 9.58896 38.9635C10.0919 38.7772 10.6499 38.7772 11.1528 38.9635C11.3813 39.0519 11.588 39.1846 11.7598 39.3531C11.9292 39.5235 12.0612 39.7243 12.1482 39.9437C12.2435 40.1892 12.2906 40.4492 12.2871 40.7108ZM11.747 40.7108C11.751 40.5028 11.718 40.2956 11.6492 40.0981C11.5916 39.929 11.4979 39.7729 11.374 39.6399C11.2534 39.5139 11.1049 39.4152 10.9393 39.3507C10.5734 39.2167 10.1684 39.2167 9.80245 39.3507C9.63684 39.4152 9.48836 39.5139 9.36776 39.6399C9.24215 39.7722 9.14747 39.9284 9.08997 40.0981C8.9591 40.4971 8.9591 40.9246 9.08997 41.3235C9.14803 41.4931 9.24265 41.6492 9.36776 41.7818C9.48851 41.907 9.637 42.0049 9.80245 42.0685C10.169 42.1991 10.5728 42.1991 10.9393 42.0685C11.1048 42.0049 11.2533 41.907 11.374 41.7818C11.4974 41.6484 11.591 41.4925 11.6492 41.3235C11.7183 41.1261 11.7513 40.9189 11.747 40.7108Z"/><path d="M16.3408 41.3532L16.3948 41.4904C16.4154 41.4414 16.4334 41.3973 16.454 41.3532C16.4736 41.3071 16.4959 41.2621 16.5209 41.2184L17.8352 38.942C17.861 38.9028 17.8841 38.8783 17.9098 38.8709C17.9448 38.8608 17.9814 38.8566 18.0179 38.8587H18.4062V42.5613H17.9458V39.8388C17.9458 39.8045 17.9458 39.7653 17.9458 39.7237C17.9434 39.6812 17.9434 39.6387 17.9458 39.5962L16.6238 41.9046C16.607 41.9391 16.5801 41.9684 16.5464 41.9888C16.5126 42.0092 16.4734 42.02 16.4334 42.0197H16.3588C16.3188 42.0203 16.2794 42.0097 16.2456 41.9892C16.2118 41.9687 16.185 41.9393 16.1685 41.9046L14.8078 39.5815C14.8078 39.6256 14.8078 39.6698 14.8078 39.7139C14.8078 39.758 14.8078 39.7972 14.8078 39.8315V42.5539H14.3629V38.8587H14.7512C14.7877 38.8566 14.8243 38.8608 14.8593 38.8709C14.8912 38.886 14.9166 38.9111 14.9313 38.942L16.274 41.2209C16.3003 41.263 16.3227 41.3073 16.3408 41.3532Z"/><path d="M21.2871 41.1692V42.5562H20.7726V38.8585H21.9198C22.1364 38.8546 22.3523 38.8818 22.5603 38.9394C22.7268 38.9843 22.8812 39.0629 23.013 39.1697C23.1272 39.2699 23.2153 39.394 23.2702 39.5324C23.3309 39.6832 23.3606 39.8438 23.3576 40.0053C23.3599 40.1675 23.3275 40.3284 23.2625 40.4782C23.2006 40.6201 23.1056 40.7466 22.9847 40.8482C22.8527 40.9595 22.6976 41.043 22.5294 41.0933C22.3292 41.1542 22.1197 41.1832 21.9095 41.179L21.2871 41.1692ZM21.2871 40.7723H21.9095C22.0447 40.7739 22.1793 40.7549 22.3082 40.7159C22.4145 40.6818 22.5125 40.6277 22.5963 40.5566C22.6736 40.4888 22.7334 40.405 22.7712 40.3116C22.8133 40.2128 22.8343 40.107 22.8329 40.0004C22.8389 39.8976 22.8213 39.7948 22.7813 39.6992C22.7413 39.6035 22.68 39.5174 22.6014 39.4466C22.4049 39.3004 22.1581 39.2296 21.9095 39.2481H21.2871V40.7723Z"/><path d="M28.201 42.5612H27.7946C27.7538 42.5626 27.7138 42.5505 27.6814 42.5268C27.6522 42.5038 27.6293 42.4744 27.6145 42.4411L27.2647 41.5466H25.508L25.1453 42.4411C25.132 42.4738 25.1098 42.5025 25.081 42.5244C25.0483 42.5495 25.0072 42.5625 24.9652 42.5612H24.5588L26.1021 38.8582H26.6371L28.201 42.5612ZM25.6546 41.1863H27.1053L26.4931 39.6791C26.4463 39.5658 26.4076 39.4495 26.3773 39.3311L26.3182 39.5247C26.3002 39.5836 26.2796 39.6375 26.2616 39.6816L25.6546 41.1863Z"/><path d="M30.4233 38.8754C30.4541 38.8915 30.4805 38.9141 30.5005 38.9416L32.7511 41.7329C32.7511 41.6887 32.7511 41.6446 32.7511 41.603C32.7511 41.5613 32.7511 41.5197 32.7511 41.4804V38.8582H33.2115V42.5612H32.9543C32.9178 42.5622 32.8816 42.5547 32.8489 42.5391C32.8171 42.5215 32.7892 42.4982 32.7666 42.4705L30.5185 39.6817C30.521 39.7241 30.521 39.7666 30.5185 39.8091C30.5185 39.8508 30.5185 39.8875 30.5185 39.9218V42.5612H30.0581V38.8582H30.3308C30.3626 38.8574 30.3942 38.8632 30.4233 38.8754Z"/><path d="M37.0029 41.0884V42.5588H36.4884V41.0884L35.066 38.8584H35.5265C35.5661 38.8561 35.6053 38.8674 35.6371 38.8902C35.6651 38.914 35.6886 38.9422 35.7065 38.9735L36.5965 40.4121C36.6325 40.4733 36.6634 40.5297 36.6891 40.5836C36.7148 40.6375 36.7354 40.689 36.7534 40.7405L36.8203 40.5812C36.8452 40.5229 36.8744 40.4664 36.9077 40.4121L37.7848 38.9637C37.8033 38.9348 37.8258 38.9084 37.8517 38.8853C37.8822 38.8599 37.9218 38.8467 37.9623 38.8486H38.4279L37.0029 41.0884Z"/><path d="M16.0862 32.6443C16.31 32.6712 16.5363 32.6933 16.7652 32.7129C20.2358 31.2337 23.1718 28.8127 25.2062 25.7526C27.2406 22.6924 28.2832 19.1289 28.2036 15.5073L24.3788 11.8633C25.1565 15.7191 24.7927 19.705 23.3282 23.3751C21.8636 27.0452 19.3561 30.2546 16.0862 32.6443Z"/><path d="M14.7204 32.4748L14.8233 32.4944C18.3175 30.1132 20.9816 26.788 22.4709 22.9488C23.9603 19.1097 24.2065 14.9331 23.1776 10.9592L17.7298 5.76904C19.9333 10.0353 20.8202 14.8098 20.2875 19.5374C19.7547 24.265 17.8242 28.7514 14.7204 32.4748Z"/><path d="M33.1961 19.7861C32.2706 23.7654 30.0227 27.3541 26.7863 30.0196C25.8411 30.8023 24.8216 31.4996 23.7409 32.1025C26.3763 31.3646 28.7985 30.0598 30.8209 28.289C32.8433 26.5181 34.4119 24.3284 35.4056 21.8887L33.1961 19.7861Z"/><path d="M32.3293 19.2002L29.1835 16.2031C29.1234 19.6201 28.1038 22.9594 26.2307 25.8739C24.3576 28.7885 21.6994 31.1718 18.5323 32.7764H18.5477C19.2535 32.7761 19.9586 32.736 20.6595 32.6563C23.6193 31.5053 26.2339 29.6742 28.2702 27.3262C30.3065 24.9782 31.701 22.1865 32.3293 19.2002Z"/><path d="M15.1757 3.5803L11.4229 0C8.06808 1.23513 5.18278 3.40643 3.14464 6.22973C1.1065 9.05304 0.0104686 12.3968 0 15.8234H0C0.0125737 19.6097 1.3502 23.2838 3.80116 26.2643C6.25213 29.2448 9.67642 31.3614 13.5321 32.2791C16.974 28.2838 18.9892 23.347 19.2847 18.186C19.5803 13.025 18.1409 7.90862 15.1757 3.5803Z"/><path d="M41 18.649C40.9864 14.1568 39.1073 9.85223 35.7732 6.67574C32.4391 3.49924 27.921 1.70898 23.2059 1.69605C21.0271 1.6939 18.8668 2.07696 16.8347 2.82576L39.8117 24.7166C40.5984 22.7815 41.0014 20.7241 41 18.649Z"/></symbol><symbol id="icon-company-2" viewBox="0 0 40 52"><path d="M16.977 2.93452H17.1136C17.3666 2.93452 17.6398 2.95995 17.9105 2.98284C19.1032 3.06695 20.2874 3.24551 21.4521 3.51685V0.653528C20.2528 0.352628 19.0297 0.157776 17.7967 0.0712015C17.3287 0.0356008 16.8303 0.0127146 16.3193 0H15.8918C13.4169 0.00930695 10.9527 0.327052 8.55557 0.945963C5.82533 1.62687 3.20469 2.69275 0.771606 4.11189V32.5086C3.11433 31.2357 5.60716 30.2643 8.19129 29.6173C10.2317 29.0967 12.3175 28.7765 14.4195 28.6612H14.503C14.8546 28.6434 15.2062 28.6332 15.568 28.6306V25.7216C12.8367 25.7567 10.1193 26.1178 7.47285 26.7972C6.49384 27.0515 5.54773 27.3261 4.65979 27.6313L3.6479 27.9746V5.83344L4.08049 5.62492C7.38171 4.05951 10.9522 3.14863 14.5966 2.94215C14.6269 2.93994 14.6573 2.93994 14.6876 2.94215C15.0898 2.92181 15.4946 2.91163 15.8918 2.91163H16.3269H16.3471C16.5571 2.91672 16.7671 2.92181 16.977 2.93452Z"/><path d="M24.1108 5.93259C23.4455 5.93259 22.7877 5.9097 22.1528 5.86138C21.3939 5.80544 20.6147 5.7139 19.876 5.58929C19.4257 5.51301 18.983 5.42146 18.553 5.32229V33.3935C20.3737 33.8443 22.2433 34.0647 24.1184 34.0496C26.5931 34.0395 29.0571 33.7227 31.4546 33.1061C34.1853 32.4243 36.8067 31.3585 39.2411 29.9402V2.04956C36.8986 3.32178 34.4068 4.29396 31.8239 4.94339C29.3031 5.59083 26.7125 5.92307 24.1108 5.93259ZM35.3352 6.41828L36.3471 6.07753V28.2263L35.9145 28.4348C34.2552 29.2243 32.5223 29.8469 30.7412 30.2937C28.5781 30.8533 26.3544 31.1412 24.1209 31.1506C23.4531 31.1506 22.7903 31.1227 22.1477 31.0667L21.4546 31.0057V28.3178V8.22883L22.2616 8.28224C22.8485 8.32038 23.4556 8.33818 24.1158 8.33818C26.9514 8.3281 29.7749 7.96596 32.5221 7.25998C33.4657 7.01078 34.4042 6.73106 35.3352 6.41828Z"/><path d="M2.73713 42.2124C2.59166 42.0615 2.41629 41.943 2.22236 41.8646C2.02844 41.7862 1.82029 41.7496 1.61141 41.7572C1.38879 41.7542 1.16781 41.7957 0.961267 41.8793C0.771901 41.9547 0.599767 42.068 0.455322 42.2124C0.312451 42.3572 0.201292 42.5304 0.128988 42.721C0.0496792 42.9207 0.0101425 43.1341 0.0126205 43.3491V47.1431C0.00357283 47.4104 0.0545882 47.6764 0.161874 47.9212C0.251433 48.1156 0.380725 48.2889 0.541333 48.4298C0.692953 48.5575 0.870978 48.6495 1.06246 48.6994C1.24694 48.7512 1.43755 48.7777 1.62911 48.7782C1.84041 48.7803 2.04953 48.7351 2.24131 48.646C2.43095 48.563 2.60277 48.4438 2.74725 48.295C2.88814 48.1476 3.00052 47.9752 3.07865 47.7864C3.15973 47.5951 3.20105 47.3892 3.20007 47.1812V46.7566H2.20842V47.0948C2.21137 47.2103 2.1916 47.3252 2.15024 47.433C2.11794 47.5137 2.06877 47.5866 2.00604 47.6466C1.94461 47.6962 1.87416 47.7334 1.79861 47.7559C1.73164 47.7782 1.6617 47.7902 1.59117 47.7915C1.50263 47.8018 1.41296 47.7885 1.33122 47.7527C1.24948 47.717 1.17858 47.6602 1.1257 47.5881C1.03222 47.4356 0.986395 47.2585 0.994154 47.0795V43.5423C0.988002 43.3462 1.02969 43.1515 1.11558 42.9753C1.16706 42.8952 1.2399 42.8313 1.32578 42.7908C1.41166 42.7503 1.50713 42.7349 1.60129 42.7464C1.68676 42.7434 1.7717 42.7612 1.8488 42.7984C1.92591 42.8356 1.99289 42.8911 2.04399 42.96C2.15496 43.1057 2.21298 43.2852 2.20842 43.4686V43.7966H3.18995V43.4101C3.19195 43.1831 3.15073 42.9578 3.06853 42.7464C2.99527 42.5476 2.88251 42.3659 2.73713 42.2124Z"/><path d="M8.62892 42.1691C8.31271 41.9021 7.91362 41.7546 7.50066 41.7521C7.29868 41.7529 7.09838 41.7891 6.9087 41.8589C6.71613 41.9279 6.53841 42.0332 6.38505 42.1691C6.22076 42.3168 6.08968 42.498 6.00053 42.7006C5.90063 42.9323 5.85146 43.183 5.85634 43.4355V47.0744C5.8495 47.3304 5.89873 47.5847 6.00053 47.8195C6.09028 48.0151 6.22152 48.1887 6.38505 48.328C6.53665 48.4688 6.71468 48.5777 6.9087 48.6485C7.09838 48.7183 7.29868 48.7544 7.50066 48.7553C7.70269 48.7549 7.90307 48.7187 8.09262 48.6485C8.28995 48.5767 8.47195 48.468 8.62892 48.328C8.7871 48.1861 8.91454 48.013 9.00332 47.8195C9.10512 47.5847 9.15435 47.3304 9.14751 47.0744V43.4355C9.15239 43.183 9.10322 42.9323 9.00332 42.7006C8.91505 42.5001 8.78775 42.3194 8.62892 42.1691ZM8.16598 47.0744C8.17434 47.1714 8.16095 47.269 8.1268 47.3601C8.09265 47.4512 8.03861 47.5334 7.96866 47.6008C7.83768 47.7106 7.67251 47.7708 7.50193 47.7708C7.33135 47.7708 7.16617 47.7106 7.03519 47.6008C6.96524 47.5334 6.9112 47.4512 6.87705 47.3601C6.8429 47.269 6.82952 47.1714 6.83787 47.0744V43.4355C6.82952 43.3385 6.8429 43.2409 6.87705 43.1498C6.9112 43.0587 6.96524 42.9764 7.03519 42.9091C7.16617 42.7993 7.33135 42.7391 7.50193 42.7391C7.67251 42.7391 7.83768 42.7993 7.96866 42.9091C8.03861 42.9764 8.09265 43.0587 8.1268 43.1498C8.16095 43.2409 8.17434 43.3385 8.16598 43.4355V47.0744Z"/><path d="M16.3673 48.6994V41.8107H15.4136L14.1614 45.4572H14.1437L12.8813 41.8107H11.9377V48.6994H12.9218V44.5087H12.9395L13.9033 47.4712H14.3941L15.3655 44.5087H15.3832V48.6994H16.3673Z"/><path d="M21.9581 42.2937C21.8065 42.1237 21.6153 41.9943 21.4015 41.9173C21.1712 41.8424 20.9302 41.8063 20.6881 41.8105H19.226V48.6993H20.2075V46.0089H20.7134C21.0197 46.0228 21.3244 45.958 21.5988 45.8207C21.822 45.6968 22.0081 45.515 22.1377 45.2943C22.2512 45.1111 22.3277 44.9071 22.3628 44.6942C22.4014 44.435 22.4192 44.173 22.4159 43.911C22.4255 43.5802 22.3932 43.2495 22.3198 42.9269C22.2543 42.6885 22.1299 42.4706 21.9581 42.2937ZM21.4521 44.3941C21.4479 44.5188 21.4168 44.6412 21.361 44.7527C21.3049 44.8586 21.2162 44.9434 21.1081 44.9942C20.9627 45.0593 20.8041 45.0889 20.6451 45.0807H20.1974V42.7387H20.7033C20.8557 42.7312 21.0075 42.7609 21.146 42.8251C21.2475 42.8834 21.3281 42.9724 21.3762 43.0794C21.4299 43.2004 21.4591 43.331 21.4622 43.4634C21.4622 43.6084 21.4622 43.7609 21.4622 43.9211C21.4622 44.0813 21.4723 44.2466 21.4622 44.3941H21.4521Z"/><path d="M26.6077 41.8107H25.8032L24.2854 48.6994H25.2669L25.5553 47.2194H26.8935L27.1819 48.6994H28.1635L26.6077 41.8107ZM25.702 46.2811L26.1852 43.784H26.2029L26.6836 46.2811H25.702Z"/><path d="M32.9497 45.9607H32.932L31.4496 41.8107H30.506V48.6994H31.4875V44.557H31.5078L33.0079 48.6994H33.9312V41.8107H32.9497V45.9607Z"/><path d="M38.9476 41.8107L38.1583 44.5494H38.1381L37.3488 41.8107H36.3091L37.6574 45.7878V48.6994H38.639V45.7878L39.9873 41.8107H38.9476Z"/><path d="M0 50.6445H0.473058V51.9719H0.794333V50.6445H1.26486V50.3724H0V50.6445Z"/><path d="M3.97672 50.3724L3.35693 51.9719H3.69845L3.82999 51.6083H4.46748L4.60409 51.9719H4.95319L4.31823 50.3724H3.97672ZM3.92612 51.3387L4.14368 50.7462L4.36123 51.3387H3.92612Z"/><path d="M7.90793 51.3821H8.27727V51.5881C8.16941 51.6746 8.03576 51.722 7.89781 51.7229C7.8333 51.7265 7.76886 51.7145 7.70988 51.688C7.65091 51.6614 7.59911 51.6211 7.55883 51.5703C7.47402 51.4485 7.43217 51.3017 7.43993 51.1533C7.43993 50.7973 7.59424 50.6193 7.90034 50.6193C7.98091 50.6112 8.06168 50.6325 8.12804 50.6791C8.19439 50.7257 8.24194 50.7947 8.26209 50.8735L8.57831 50.8125C8.51001 50.4997 8.28486 50.3421 7.90034 50.3421C7.69468 50.3366 7.4947 50.4103 7.34127 50.5481C7.26069 50.6276 7.19834 50.7239 7.15858 50.8302C7.11882 50.9365 7.10261 51.0502 7.11107 51.1634C7.10175 51.3823 7.17493 51.5966 7.31598 51.7636C7.39434 51.8444 7.4892 51.9071 7.59401 51.9475C7.69883 51.9879 7.8111 52.0049 7.92311 51.9975C8.17338 52.0045 8.41652 51.9133 8.60108 51.7432V51.1126H7.90793V51.3821Z"/><path d="M11.9226 50.3724H11.5988V51.9719H12.7194V51.6998H11.9226V50.3724Z"/><path d="M15.3175 50.3724H14.9937V51.9719H15.3175V50.3724Z"/><path d="M18.6365 51.4405L17.9813 50.3724H17.6676V51.9719H17.9686V50.9268L18.6112 51.9719H18.9325V50.3724H18.6365V51.4405Z"/><path d="M21.6368 51.2675H22.4337V50.9954H21.6368V50.6445H22.4944V50.3724H21.313V51.9719H22.5273V51.6998H21.6368V51.2675Z"/><path d="M28.9122 51.0031H28.2823V50.3724H27.9611V51.9719H28.2823V51.2726H28.9122V51.9719H29.2335V50.3724H28.9122V51.0031Z"/><path d="M31.9302 51.2675H32.7296V50.9954H31.9302V50.6445H32.7903V50.3724H31.6089V51.9719H32.8206V51.6998H31.9302V51.2675Z"/><path d="M36.0233 51.2676C36.3015 51.2244 36.4432 51.0769 36.4432 50.8226C36.4513 50.7546 36.441 50.6856 36.4134 50.623C36.3858 50.5603 36.3419 50.5063 36.2863 50.4666C36.1415 50.3938 35.9799 50.3614 35.8183 50.3725H35.1404V51.972H35.4617V51.3032H35.5249C35.5934 51.299 35.6619 51.3112 35.7247 51.3388C35.7717 51.3678 35.8108 51.4079 35.8386 51.4558L36.1877 51.9644H36.5722L36.3774 51.6516C36.2913 51.4972 36.1699 51.3656 36.0233 51.2676ZM35.6994 51.0464H35.4617V50.6446H35.7146C35.8248 50.6357 35.9357 50.6486 36.041 50.6827C36.0644 50.7034 36.0828 50.7291 36.095 50.7579C36.1072 50.7867 36.1127 50.8179 36.1113 50.8492C36.1098 50.8804 36.1014 50.911 36.0866 50.9385C36.0718 50.966 36.051 50.9899 36.0258 51.0082C35.9202 51.0406 35.8096 51.0535 35.6994 51.0464Z"/><path d="M39.1096 51.2675H39.9064V50.9954H39.1096V50.6445H39.9697V50.3724H38.7858V51.9719H40V51.6998H39.1096V51.2675Z"/></symbol><symbol id="icon-company-1" viewBox="0 0 45 50"><path d="M6 0L13.3076 6.91796H33.6924V26.2158L41 33.1338V0H6Z"/><path d="M0 6.62646V38.8137H34V26.0195L13.5231 6.63443L0 6.62646ZM27.5231 34.1055H5.38008V12.4579H6.9453V32.6397H27.5231V34.1055Z"/><path d="M9.79102 44.7837L10.6089 43.0991H11.2925L10.1011 45.3452V46.6538H9.48096V45.3452L8.28711 43.0991H8.97314L9.79102 44.7837ZM13.3018 45.8262H11.9248L11.6367 46.6538H10.9946L12.3374 43.0991H12.8916L14.2368 46.6538H13.5923L13.3018 45.8262ZM12.0981 45.3281H13.1284L12.6133 43.8535L12.0981 45.3281ZM15.7358 45.6943C15.7358 45.5299 15.7806 45.3794 15.8701 45.2427C15.9596 45.1043 16.1362 44.9408 16.3999 44.752C16.2616 44.5778 16.1647 44.4297 16.1094 44.3076C16.0557 44.1855 16.0288 44.0675 16.0288 43.9536C16.0288 43.6753 16.1134 43.4556 16.2827 43.2944C16.452 43.1317 16.6799 43.0503 16.9663 43.0503C17.2251 43.0503 17.4367 43.1268 17.6011 43.2798C17.7671 43.4312 17.8501 43.6191 17.8501 43.8438C17.8501 43.9919 17.8127 44.1286 17.7378 44.2539C17.6629 44.3776 17.54 44.5013 17.3691 44.625L17.1274 44.8008L17.8135 45.6113C17.9128 45.416 17.9624 45.1987 17.9624 44.9595H18.4775C18.4775 45.3973 18.375 45.7562 18.1699 46.0361L18.6924 46.6538H18.0039L17.8037 46.417C17.5498 46.6074 17.2471 46.7026 16.8955 46.7026C16.5439 46.7026 16.2624 46.6099 16.0508 46.4243C15.8408 46.2371 15.7358 45.9938 15.7358 45.6943ZM16.9126 46.229C17.1128 46.229 17.3 46.1623 17.4741 46.0288L16.6978 45.1133L16.6221 45.167C16.4268 45.3151 16.3291 45.4844 16.3291 45.6748C16.3291 45.8392 16.382 45.9727 16.4878 46.0752C16.5936 46.1777 16.7352 46.229 16.9126 46.229ZM16.5854 43.939C16.5854 44.0757 16.6693 44.2474 16.8369 44.4541L17.1079 44.2686L17.1836 44.2075C17.2845 44.118 17.335 44.0033 17.335 43.8633C17.335 43.7705 17.3 43.6916 17.23 43.6265C17.16 43.5597 17.0713 43.5264 16.9639 43.5264C16.8483 43.5264 16.7563 43.5654 16.688 43.6436C16.6196 43.7217 16.5854 43.8201 16.5854 43.939ZM23.043 45.4966C23.0072 45.8758 22.8672 46.172 22.623 46.3853C22.3789 46.5968 22.0542 46.7026 21.6489 46.7026C21.3657 46.7026 21.1159 46.6359 20.8994 46.5024C20.6846 46.3674 20.5186 46.1761 20.4014 45.9287C20.2842 45.6813 20.2231 45.394 20.2183 45.0669V44.7349C20.2183 44.3996 20.2777 44.1042 20.3965 43.8486C20.5153 43.5931 20.6854 43.3962 20.9067 43.2578C21.1297 43.1195 21.3869 43.0503 21.6782 43.0503C22.0705 43.0503 22.3862 43.1569 22.6255 43.3701C22.8647 43.5833 23.0039 43.8844 23.043 44.2734H22.4277C22.3984 44.0179 22.3236 43.834 22.2031 43.7217C22.0843 43.6077 21.9093 43.5508 21.6782 43.5508C21.4097 43.5508 21.203 43.6493 21.0581 43.8462C20.9149 44.0415 20.8416 44.3288 20.8384 44.708V45.0229C20.8384 45.4071 20.9067 45.7 21.0435 45.9019C21.1818 46.1037 21.3836 46.2046 21.6489 46.2046C21.8914 46.2046 22.0737 46.1501 22.1958 46.041C22.3179 45.932 22.3952 45.7505 22.4277 45.4966H23.043ZM26.4341 44.9692C26.4341 45.3175 26.3739 45.6235 26.2534 45.8872C26.133 46.1493 25.9604 46.3511 25.7358 46.4927C25.5129 46.6326 25.2557 46.7026 24.9644 46.7026C24.6763 46.7026 24.4191 46.6326 24.1929 46.4927C23.9683 46.3511 23.7941 46.1501 23.6704 45.8896C23.5483 45.6292 23.4865 45.3289 23.4849 44.9888V44.7886C23.4849 44.4419 23.5459 44.1359 23.668 43.8706C23.7917 43.6053 23.965 43.4027 24.188 43.2627C24.4126 43.1211 24.6698 43.0503 24.9595 43.0503C25.2492 43.0503 25.5055 43.1203 25.7285 43.2603C25.9531 43.3986 26.1265 43.5988 26.2485 43.8608C26.3706 44.1213 26.4325 44.4248 26.4341 44.7715V44.9692ZM25.8164 44.7837C25.8164 44.3898 25.7415 44.0879 25.5918 43.8779C25.4437 43.668 25.2329 43.563 24.9595 43.563C24.6925 43.563 24.4834 43.668 24.332 43.8779C24.1823 44.0863 24.1058 44.3817 24.1025 44.7642V44.9692C24.1025 45.3599 24.1782 45.6618 24.3296 45.875C24.4826 46.0882 24.6942 46.1948 24.9644 46.1948C25.2378 46.1948 25.4478 46.0907 25.5942 45.8823C25.7424 45.674 25.8164 45.3696 25.8164 44.9692V44.7837Z"/></symbol><symbol id="icon-linkedin" viewBox="0 0 32 32"><path d="M31.992 32H32V20.262c0-5.741-1.237-10.163-7.947-10.163-3.227 0-5.392 1.77-6.277 3.45h-.093v-2.914h-6.365v21.363h6.627V21.42c0-2.786.528-5.48 3.978-5.48 3.398 0 3.448 3.179 3.448 5.658V32h6.621zM.528 10.635h6.635V32H.528V10.635zM3.843 0A3.843 3.843 0 000 3.843c0 2.12 1.722 3.878 3.843 3.878 2.12 0 3.842-1.757 3.842-3.878S5.965.002 3.844 0z"/></symbol><symbol id="icon-instagram" viewBox="0 0 32 32"><path d="M31.968 9.408c-.074-1.701-.349-2.869-.742-3.882a7.839 7.839 0 00-1.85-2.837l-.001-.001A7.906 7.906 0 0026.597.861l-.054-.018C25.524.449 24.362.176 22.661.101 20.949.019 20.405 0 16.059 0c-4.344 0-4.888.019-6.595.094-1.699.074-2.869.349-3.88.742a7.847 7.847 0 00-2.839 1.85l-.001.001A7.9 7.9 0 00.919 5.465l-.018.054C.506 6.538.232 7.7.157 9.401c-.082 1.712-.101 2.256-.101 6.602 0 4.344.019 4.888.094 6.595.075 1.701.35 2.869.744 3.882a7.915 7.915 0 001.849 2.837l.001.001c.8.813 1.77 1.443 2.832 1.843 1.019.395 2.182.67 3.882.744 1.707.075 2.251.094 6.595.094 4.346 0 4.89-.019 6.595-.094 1.701-.074 2.869-.349 3.882-.742a8.237 8.237 0 004.664-4.628l.019-.055c.394-1.019.669-2.182.744-3.882.075-1.707.093-2.251.093-6.595s-.006-4.888-.08-6.595zm-2.88 13.066c-.07 1.563-.333 2.406-.55 2.97a5.341 5.341 0 01-3.004 3.024l-.036.012c-.56.219-1.411.482-2.968.55-1.688.075-2.194.094-6.464.094-4.269 0-4.782-.019-6.464-.094-1.563-.069-2.406-.331-2.97-.55a4.953 4.953 0 01-1.836-1.192l-.001-.001a4.978 4.978 0 01-1.184-1.803L3.6 25.45c-.218-.563-.48-1.413-.549-2.97-.075-1.688-.094-2.195-.094-6.464 0-4.27.019-4.784.094-6.464.069-1.563.331-2.406.549-2.97a4.897 4.897 0 011.198-1.837l.002-.002a4.972 4.972 0 011.806-1.182l.034-.011c.56-.219 1.411-.48 2.968-.55 1.688-.074 2.195-.093 6.464-.093 4.275 0 4.782.019 6.464.093 1.563.069 2.406.331 2.97.55a4.91 4.91 0 011.837 1.194c.531.52.938 1.144 1.195 1.84.218.56.48 1.411.549 2.968.075 1.688.094 2.194.094 6.464 0 4.269-.019 4.768-.094 6.458z"/><path d="M16.059 7.782a8.223 8.223 0 00-8.219 8.221 8.223 8.223 0 0016.442.008v-.009a8.223 8.223 0 00-8.221-8.221zm0 13.552a5.333 5.333 0 01.001-10.666h.001a5.334 5.334 0 110 10.668zM26.525 7.458a1.92 1.92 0 01-3.84 0 1.92 1.92 0 013.84 0z"/></symbol><symbol id="icon-facebook" viewBox="0 0 32 32"><path d="M21.328 5.312h2.923V.224A36.483 36.483 0 0020.143 0h-.156.008c-4.213 0-7.099 2.65-7.099 7.52V12H8.25v5.688h4.646V32h5.699V17.69h4.459l.707-5.688h-5.168V8.08c0-1.643.443-2.768 2.734-2.768z"/></symbol><symbol id="icon-mail" viewBox="0 0 43 32"><path d="M38.667 0H4C1.795 0 0 1.795 0 4v24c0 2.205 1.795 4 4 4h34.667c2.205 0 4-1.795 4-4V4c0-2.205-1.795-4-4-4zm0 2.667c.181 0 .355.037.512.104L21.334 18.238 3.489 2.771c.151-.065.327-.104.512-.104h34.667zm0 26.666H4A1.333 1.333 0 012.667 28V5.587l17.792 15.421c.233.203.539.327.875.327s.642-.124.876-.328l-.002.001L40 5.587V28c0 .736-.597 1.333-1.333 1.333z"/></symbol><symbol id="icon-diagram" viewBox="0 0 70 70"><path d="M32.6496 32.7351H34.9817V43.2296H32.6496V32.7351Z" fill="#2196F3"/><path d="M41.978 37.3993H44.3101V43.2296H41.978V37.3993Z" fill="#2196F3"/><path d="M23.3211 40.8975H25.6532V43.2296H23.3211V40.8975Z" fill="#2196F3"/><path d="M16.3248 39.7314H18.6569V43.2295H16.3248V39.7314Z" fill="#2196F3"/><path d="M3.49817 61.8865H59.4689C61.4007 61.8865 62.967 60.3202 62.967 58.3883V53.7241C62.967 51.7923 61.4007 50.2259 59.4689 50.2259H58.3028V21.1469L64.9262 14.8725C66.4635 15.6303 68.3242 15.1702 69.3302 13.7816C70.3369 12.3935 70.1957 10.4821 68.9966 9.25684C67.7975 8.03157 65.8901 7.8488 64.4798 8.82412C63.0701 9.80001 62.569 11.6499 63.2933 13.2037L58.3028 17.9345V15.2443C58.3028 13.3124 56.7365 11.7461 54.8046 11.7461H8.16239C6.23054 11.7461 4.66422 13.3124 4.66422 15.2443V50.2259H3.49817C1.56632 50.2259 0 51.7923 0 53.7241V58.3883C0 60.3202 1.56632 61.8865 3.49817 61.8865ZM66.4652 10.58C67.1091 10.58 67.6312 11.1021 67.6312 11.7461C67.6312 12.39 67.1091 12.9121 66.4652 12.9121C65.8212 12.9121 65.2991 12.39 65.2991 11.7461C65.2991 11.1021 65.8212 10.58 66.4652 10.58ZM6.99634 15.2443C6.99634 14.6003 7.51844 14.0782 8.16239 14.0782H54.8046C55.4486 14.0782 55.9707 14.6003 55.9707 15.2443V20.1414L53.6386 22.3573V17.5764C53.6386 16.9324 53.1165 16.4103 52.4725 16.4103H10.4945C9.85055 16.4103 9.32845 16.9324 9.32845 17.5764V46.7278C9.32845 47.3717 9.85055 47.8938 10.4945 47.8938H52.4725C53.1165 47.8938 53.6386 47.3717 53.6386 46.7278V25.5651L55.9707 23.3554V50.2259H6.99634V15.2443ZM17.4908 30.403C15.9131 30.3984 14.5279 31.4495 14.1083 32.9703C13.6886 34.491 14.3383 36.104 15.6951 36.9091C17.0513 37.7142 18.7793 37.5121 19.9129 36.4149L23.9662 38.4487C24.4371 38.6844 25.0081 38.5739 25.3583 38.1805L33.9745 28.4871L42.4443 34.8338C42.8987 35.1743 43.5329 35.1378 43.9452 34.7478L51.3065 27.7748V45.5617H11.6606V18.7424H51.3065V24.5619L43.0564 32.3747L34.5154 25.9716C34.0303 25.6084 33.3476 25.6767 32.9445 26.1294L24.2099 35.9571L20.9446 34.3242C20.9685 34.1841 20.9833 34.0429 20.989 33.9012C20.989 31.9693 19.4227 30.403 17.4908 30.403ZM18.6569 33.9012C18.6569 34.5451 18.1348 35.0672 17.4908 35.0672C16.8469 35.0672 16.3248 34.5451 16.3248 33.9012C16.3248 33.2572 16.8469 32.7351 17.4908 32.7351C18.1348 32.7351 18.6569 33.2572 18.6569 33.9012ZM25.6532 52.5581H37.3138V53.7241C37.3138 54.3681 36.7917 54.8902 36.1477 54.8902H26.8193C26.1753 54.8902 25.6532 54.3681 25.6532 53.7241V52.5581ZM2.33211 53.7241C2.33211 53.0802 2.85422 52.5581 3.49817 52.5581H23.3211V53.7241C23.3211 55.656 24.8874 57.2223 26.8193 57.2223H36.1477C38.0796 57.2223 39.6459 55.656 39.6459 53.7241V52.5581H59.4689C60.1128 52.5581 60.6349 53.0802 60.6349 53.7241V58.3883C60.6349 59.0323 60.1128 59.5544 59.4689 59.5544H3.49817C2.85422 59.5544 2.33211 59.0323 2.33211 58.3883V53.7241Z" fill="#212121"/></symbol><symbol id="icon-clock" viewBox="0 0 32 32"><path fill="var(--color4, #212121)" d="M31.296 15.301C31.295 6.849 24.441-.002 15.988 0S.685 6.855.687 15.308c.002 6.788 4.422 12.543 10.541 14.545l.108.031a.667.667 0 00.529-.065.636.636 0 00.283-.357l3.865-12.25a1.913 1.913 0 10-.852-3.63l.011-.005-5.106-5.107a.638.638 0 00-.902.902l5.103 5.109a1.847 1.847 0 00-.191.826c0 .602.283 1.137.723 1.48l.004.003-3.682 11.673C3.843 25.782.117 17.709 2.797 10.431S13.551-.573 20.829 2.108c7.278 2.681 11.004 10.754 8.323 18.032-1.345 3.581-4.003 6.406-7.374 7.938l-.088.036-.398-1.874a.639.639 0 00-1.05-.343l.001-.001-3.837 3.426a.637.637 0 00.227 1.083l.005.001 4.899 1.563a.637.637 0 00.818-.744l.001.004-.391-1.839c5.528-2.374 9.329-7.772 9.329-14.057v-.034.002zm-15.304-.637a.638.638 0 010 1.276.638.638 0 010-1.276zm2.1 14.864l2.184-1.948.603 2.84-2.787-.892z"/><path fill="var(--color3, #2196f3)" d="M15.354 3.185V4.46a.638.638 0 001.276 0V3.185a.638.638 0 10-1.276 0zM3.876 14.664a.638.638 0 000 1.276h1.275a.638.638 0 000-1.276H3.876zm24.232 1.275a.638.638 0 000-1.276h-1.275a.638.638 0 000 1.276h1.275z"/></symbol><symbol id="icon-astronaut" viewBox="0 0 70 70"><path d="M69.9433 9.89637C69.8056 9.47513 69.4416 9.16724 69.0018 9.10298L64.8228 8.49512L62.9526 4.70809C62.5606 3.91005 61.2527 3.91005 60.8608 4.70809L58.9906 8.49512L54.8114 9.10312C54.3716 9.16724 54.0076 9.47418 53.8687 9.89651C53.7323 10.3188 53.8453 10.7831 54.1639 11.0924L57.1891 14.0407L56.4752 18.2034C56.4005 18.6409 56.5802 19.0831 56.9384 19.3445C57.3012 19.6082 57.7748 19.6407 58.168 19.4331L61.9061 17.4672L65.6442 19.4331C65.8146 19.5229 66.0024 19.5672 66.1879 19.5672C66.4294 19.5672 66.671 19.4925 66.874 19.3443C67.2333 19.0831 67.413 18.6408 67.3372 18.2033L66.6233 14.0405L69.6485 11.0923C69.9654 10.7819 70.0798 10.3187 69.9433 9.89637ZM64.5556 12.7991C64.2815 13.0662 64.1555 13.4536 64.2208 13.8316L64.6385 16.2688L62.4499 15.1184C62.2795 15.0286 62.0929 14.9843 61.9061 14.9843C61.7195 14.9843 61.534 15.0286 61.3624 15.1184L59.1736 16.2688L59.5913 13.8316C59.6567 13.4536 59.5306 13.0675 59.2565 12.7991L57.4843 11.0724L59.932 10.7166C60.3124 10.6617 60.6402 10.4226 60.8106 10.0783L61.9049 7.86169L62.9992 10.0783C63.1696 10.4225 63.4974 10.6617 63.8778 10.7166L66.3255 11.0724L64.5556 12.7991Z" fill="#2196F3"/><path d="M57.167 44.8923H54.8336V47.2257H57.167V44.8923Z" fill="#2196F3"/><path d="M57.167 49.5591H54.8336V51.8925H57.167V49.5591Z" fill="#2196F3"/><path d="M59.5004 47.2257H57.167V49.5591H59.5004V47.2257Z" fill="#2196F3"/><path d="M54.8337 47.2257H52.5003V49.5591H54.8337V47.2257Z" fill="#2196F3"/><path d="M49.0002 57.7259H46.6668V60.0593H49.0002V57.7259Z" fill="#2196F3"/><path d="M49.0002 62.3926H46.6668V64.726H49.0002V62.3926Z" fill="#2196F3"/><path d="M51.3337 60.0593H49.0002V62.3927H51.3337V60.0593Z" fill="#2196F3"/><path d="M46.6668 60.0593H44.3334V62.3927H46.6668V60.0593Z" fill="#2196F3"/><path d="M35 53.0592H32.6666V55.3926H35V53.0592Z" fill="#2196F3"/><path d="M35 57.7259H32.6666V60.0593H35V57.7259Z" fill="#2196F3"/><path d="M37.3334 55.3925H35V57.7259H37.3334V55.3925Z" fill="#2196F3"/><path d="M32.6666 55.3925H30.3332V57.7259H32.6666V55.3925Z" fill="#2196F3"/><path d="M12.833 13.3918H10.4996V15.7252H12.833V13.3918Z" fill="#2196F3"/><path d="M12.833 18.0587H10.4996V20.3921H12.833V18.0587Z" fill="#2196F3"/><path d="M15.1663 15.7252H12.8329V18.0586H15.1663V15.7252Z" fill="#2196F3"/><path d="M10.4996 15.7252H8.1662V18.0586H10.4996V15.7252Z" fill="#2196F3"/><path d="M54.0635 30.9738C53.4348 30.1256 52.5119 29.5797 51.4642 29.4326C50.4119 29.2833 49.3735 29.5597 48.5335 30.2026L45.7952 32.3014L45.794 32.3026L41.6429 35.4025L38.6725 34.2194C43.9692 31.8429 47.6712 26.545 47.6712 20.3942C47.6712 12.0314 40.8402 5.22736 32.4436 5.22736C24.047 5.22736 17.2162 12.0314 17.2162 20.3942C17.2162 23.4253 18.1226 26.2439 19.6662 28.6158L13.6204 28.5633C13.6169 28.5633 13.6134 28.5633 13.6099 28.5633C13.5912 28.5633 13.5761 28.5726 13.5586 28.5738C13.4431 28.5785 13.3299 28.6018 13.2191 28.6415C13.1911 28.652 13.162 28.6579 13.1352 28.6706C13.1212 28.6765 13.1072 28.6776 13.0932 28.6846L6.02078 32.1764C6.01955 32.1764 6.01846 32.1764 6.01846 32.1775L1.87663 34.1693C1.8311 34.1891 1.78448 34.2159 1.73895 34.2462C0.0880496 35.3452 -0.474284 37.5036 0.429989 39.2676C0.911793 40.2056 1.73198 40.8963 2.74003 41.2124C3.12859 41.3337 3.52521 41.3933 3.91952 41.3933C4.55308 41.3933 5.18077 41.2381 5.75582 40.9313L8.79157 39.3167L13.7441 36.7593L16.7122 36.7418L4.80848 48.5884C4.80738 48.5896 4.80615 48.5896 4.80492 48.5907L1.8765 51.5074C1.18469 52.1958 0.80433 53.1092 0.80433 54.0835C0.80433 55.0565 1.18469 55.9723 1.8765 56.6619C2.58703 57.3689 3.52152 57.7235 4.45601 57.7235C5.39173 57.7235 6.32498 57.3689 7.03785 56.6619L9.91254 53.7988L13.7206 50.9556L15.6912 52.9179L11.8376 56.7551C11.8365 56.7564 11.8352 56.7564 11.834 56.7575L8.90559 59.6741C8.21378 60.3625 7.83343 61.2759 7.83343 62.2502C7.83343 63.2233 8.21378 64.139 8.90559 64.8286C9.61613 65.5356 10.5518 65.8903 11.4863 65.8903C12.4208 65.8903 13.3565 65.5356 14.0682 64.8286L16.9977 61.912L21.6842 57.2453C21.6854 57.244 21.6854 57.2429 21.6865 57.2417L23.8951 55.0542L23.8869 55.046C23.9009 55.032 23.9207 55.0272 23.9348 55.0122L35.2353 42.6349L42.8281 43.7152C42.8829 43.7234 42.9377 43.7269 42.9926 43.7269C43.1338 43.7269 43.2703 43.6931 43.4021 43.6429C43.4406 43.629 43.4744 43.6102 43.5106 43.5916C43.5526 43.5706 43.5969 43.559 43.6367 43.5322L50.6659 38.8655C50.6916 38.848 50.7056 38.8199 50.73 38.8013C50.758 38.7792 50.7931 38.7699 50.8186 38.7453L53.5999 36.1401C55.0471 34.7841 55.2466 32.5628 54.0635 30.9738ZM4.66027 38.8722C4.28114 39.0752 3.85061 39.1159 3.43881 38.9854C3.03042 38.8582 2.69915 38.5793 2.50541 38.2025C2.15308 37.5164 2.35721 36.6811 2.97436 36.2296L5.84796 34.8471L6.53977 36.8689L6.8303 37.7182L4.66027 38.8722ZM12.3102 34.874L8.92336 36.6241L8.36459 34.9907L7.96331 33.8169L12.3968 31.6282L12.3102 34.874ZM45.3402 20.3919C45.3402 22.4009 44.8607 24.2957 44.03 25.9907L34.8832 21.8362C34.7875 20.5821 34.1366 19.4842 33.1589 18.8005L36.3615 8.16849C41.5626 9.82295 45.3402 14.6752 45.3402 20.3919ZM19.5519 20.3919C19.5519 13.3159 25.3363 7.55831 32.4461 7.55831C32.9991 7.55831 33.5404 7.60493 34.0759 7.67261L30.9434 18.0713C30.9014 18.0701 30.8617 18.0585 30.8185 18.0585C28.5598 18.0585 26.7222 19.8901 26.7222 22.1419C26.7222 24.3936 28.5598 26.2254 30.8185 26.2254C32.3375 26.2254 33.65 25.3866 34.3582 24.1591L42.8073 27.9975C40.4564 31.1615 36.6938 33.2255 32.4459 33.2255C25.3363 33.2255 19.5519 27.4679 19.5519 20.3919ZM32.5814 22.1419C32.5814 23.1068 31.7903 23.8919 30.8185 23.8919C29.8467 23.8919 29.0557 23.1068 29.0557 22.1419C29.0557 21.1771 29.8467 20.3919 30.8185 20.3919C31.7903 20.3919 32.5814 21.1771 32.5814 22.1419ZM5.39186 55.0074C4.87506 55.5196 4.03846 55.5185 3.52289 55.0087C3.27433 54.7601 3.13788 54.4324 3.13788 54.0835C3.13788 53.7358 3.27433 53.4079 3.52289 53.1618L5.62743 51.0652L7.48944 52.9191L5.39186 55.0074ZM12.4222 63.1743C11.9054 63.6865 11.0677 63.6877 10.552 63.1755C10.3034 62.927 10.167 62.5993 10.167 62.2503C10.167 61.9027 10.3034 61.5748 10.552 61.3287L12.6579 59.231L13.5388 60.1073L14.5211 61.0849L12.4222 63.1743ZM20.0384 55.5862C20.0371 55.5873 20.036 55.5873 20.0348 55.5885L16.1742 59.4385L15.2933 58.5623L14.311 57.5846L18.168 53.7451C18.168 53.7451 18.168 53.7451 18.168 53.744C18.1693 53.7428 18.1703 53.7428 18.1716 53.7417C18.2591 53.6542 18.3139 53.5492 18.3676 53.4454C18.3828 53.415 18.4119 53.3893 18.4248 53.3579C18.461 53.2681 18.4668 53.1713 18.4808 53.0767C18.4878 53.0229 18.5112 52.9729 18.5112 52.9179C18.5112 52.8397 18.4832 52.764 18.4669 52.6869C18.4529 52.6169 18.4529 52.5456 18.426 52.4781C18.3817 52.3684 18.3058 52.2716 18.2265 52.177C18.2044 52.1513 18.1962 52.1186 18.1717 52.0942C18.1717 52.0942 18.1717 52.0942 18.1705 52.0942C18.1693 52.0931 18.1693 52.0906 18.1682 52.0895L14.6529 48.5895C14.6156 48.5521 14.5678 48.537 14.5258 48.5055C14.464 48.4577 14.4045 48.4134 14.3356 48.3795C14.2692 48.3468 14.2015 48.327 14.1315 48.3082C14.0568 48.2872 13.9845 48.2709 13.9063 48.265C13.8351 48.2604 13.7686 48.2674 13.6975 48.2756C13.6193 48.2849 13.5459 48.2954 13.47 48.3199C13.3965 48.3432 13.3312 48.3793 13.2636 48.4179C13.2204 48.4424 13.1714 48.4506 13.1305 48.4809L9.25136 51.3767L7.2808 49.4143L12.5286 44.1946L22.0674 53.576L20.0384 55.5862ZM34.9545 40.2372C34.9207 40.2325 34.8891 40.2454 34.8554 40.2431C34.7702 40.2384 34.6886 40.2443 34.6034 40.2582C34.5369 40.2699 34.4739 40.2827 34.4109 40.3049C34.3362 40.3306 34.2686 40.3656 34.1996 40.4075C34.1343 40.4472 34.0748 40.4892 34.0177 40.5417C33.9896 40.5661 33.9559 40.5779 33.9302 40.6058L23.6527 51.862L14.1851 42.5506L20.3825 36.3859C20.8387 35.9309 20.8411 35.1923 20.386 34.735C20.1562 34.5052 19.8541 34.392 19.5519 34.3932V34.3921L14.6985 34.4212L14.7592 30.9049L21.5493 30.9633C24.3166 33.7937 28.176 35.5589 32.4461 35.5589C33.4027 35.5589 34.3361 35.4598 35.2449 35.2905C35.3324 35.3605 35.4186 35.4317 35.5284 35.476L40.7996 37.5761L41.1332 39.235L41.5228 41.1717L34.9545 40.2372ZM43.7944 40.6269L43.1096 37.2189L46.2736 34.8564L47.102 35.9554L48.3445 37.605L43.7944 40.6269ZM52.0055 34.4341L50.1726 36.1514L48.1356 33.4471L49.9544 32.0529C50.2939 31.7917 50.7221 31.6854 51.1421 31.7403C51.5644 31.7997 51.9378 32.0203 52.1921 32.3621C52.6659 33.0003 52.5853 33.8905 52.0055 34.4341Z" fill="#212121"/><path d="M29.7545 40.5651L25.0668 35.8984C24.613 35.4446 23.8755 35.4446 23.4205 35.8984L18.734 40.5651C18.5147 40.7856 18.391 41.0819 18.391 41.3922C18.391 41.7026 18.5135 42.0001 18.734 42.2194L23.4205 46.8861C23.648 47.1124 23.9468 47.2256 24.2443 47.2256C24.5418 47.2256 24.8404 47.1124 25.0668 46.8861L29.7545 42.2194C29.9738 42.0001 30.0987 41.7026 30.0987 41.3922C30.0987 41.0819 29.9749 40.7844 29.7545 40.5651ZM24.2443 44.4128L21.2109 41.3922L24.2443 38.3717L27.2788 41.3922L24.2443 44.4128Z" fill="#212121"/><path d="M37.5468 11.0923L36.9833 13.358C37.1385 13.3966 40.7844 14.3462 40.7844 18.0586H43.1178C43.1177 13.6461 39.4742 11.5718 37.5468 11.0923Z" fill="#212121"/><path d="M43.1178 20.3919H40.7844V22.7253H43.1178V20.3919Z" fill="#212121"/></symbol><symbol id="icon-antenna" viewBox="0 0 32 32"><path fill="var(--color4, #212121)" d="M30.773 22.098l-8.443-8.505.937-4.616c.225.09.485.144.758.146h.033a2.16 2.16 0 10-2.029-1.42l-.005-.015-4.96.606L8.973.161a.53.53 0 00-.376-.16.536.536 0 00-.373.155L6.712 1.66a.535.535 0 000 .754l.814.825C6.383 5.301 5.71 7.761 5.71 10.378c0 4.106 1.656 7.824 4.336 10.525l-.001-.001a.49.49 0 00.146.097 2.986 2.986 0 00-.052.546v6.188h-6.4a2.669 2.669 0 00-2.667 2.666v1.067c0 .295.239.534.534.534H26.14a.534.534 0 00.533-.534v-1.067a2.67 2.67 0 00-2.666-2.666h-6.4v-2.742a14.784 14.784 0 0010.166-1.502l-.077.039.818.823a.534.534 0 00.376.16.536.536 0 00.373-.155l1.512-1.504a.535.535 0 000-.754zM23.28 6.233a1.067 1.067 0 11.752 1.822h-.004a1.066 1.066 0 01-.747-1.822h-.002zm-1.256 3.504l-.598 2.946-1.175-1.183 1.774-1.763zm-.605-.902l-1.92 1.909-1.486-1.493 3.406-.416zM24.004 28.8a1.6 1.6 0 011.6 1.6v.534H2.138V30.4a1.6 1.6 0 011.6-1.6h20.267zm-7.466-2.134v1.067h-5.334v-1.067h5.334zM11.204 25.6v-4.053c0-1.294 1.196-2.346 2.667-2.346s2.667 1.053 2.667 2.346V25.6h-5.334zm6.4-1.696v-2.357c0-1.882-1.675-3.413-3.733-3.413h-.058c-1.353 0-2.54.707-3.213 1.771l-.009.016a13.817 13.817 0 01-3.812-9.55c0-2.314.567-4.496 1.569-6.414l-.036.077 18.602 18.709c-1.823.947-3.979 1.502-6.266 1.502-1.079 0-2.128-.124-3.136-.357l.093.018zm11.289-.684L7.836 2.039l.754-.752 7.935 7.98c.004 0 .006.007.01.01l13.114 13.191-.757.752z"/><path fill="var(--color3, #2196f3)" d="M13.876 20.267h-.007a1.6 1.6 0 00-.003 3.2h.007a1.6 1.6 0 00.002-3.2zm.373 1.978a.534.534 0 11-.378-.912.533.533 0 01.374.911h.005z"/></symbol><symbol id="icon-close" viewBox="0 0 11 11"><path d="M11 1.10786L9.89214 0L5.5 4.39214L1.10786 0L0 1.10786L4.39214 5.5L0 9.89214L1.10786 11L5.5 6.60786L9.89214 11L11 9.89214L6.60786 5.5L11 1.10786Z"/></symbol> <symbol id="icon-body" viewBox="0 0 12 12"><path d="M6 6C7.6575 6 9 4.6575 9 3C9 1.3425 7.6575 0 6 0C4.3425 0 3 1.3425 3 3C3 4.6575 4.3425 6 6 6ZM6 7.5C3.9975 7.5 0 8.505 0 10.5V11.25C0 11.6625 0.3375 12 0.75 12H11.25C11.6625 12 12 11.6625 12 11.25V10.5C12 8.505 8.0025 7.5 6 7.5Z"/></symbol><symbol id="icon-tel" viewBox="0 0 14 14"><path d="M11.996 9.12256L10.1579 8.91269C9.71641 8.86203 9.2822 9.01401 8.97102 9.32519L7.63945 10.6568C5.59144 9.61466 3.91251 7.94296 2.87041 5.8877L4.20922 4.54888C4.5204 4.2377 4.67237 3.80349 4.62171 3.36205L4.41185 1.53836C4.325 0.807445 3.70988 0.257446 2.97173 0.257446H1.71976C0.902004 0.257446 0.221746 0.937708 0.272403 1.75547C0.655953 7.93572 5.59868 12.8712 11.7717 13.2548C12.5894 13.3054 13.2697 12.6252 13.2697 11.8074V10.5555C13.2769 9.82453 12.7269 9.2094 11.996 9.12256Z"/></symbol><symbol id="icon-email" viewBox="0 0 16 12"><path d="M14 0H2C1.175 0 0.5075 0.675 0.5075 1.5L0.5 10.5C0.5 11.325 1.175 12 2 12H14C14.825 12 15.5 11.325 15.5 10.5V1.5C15.5 0.675 14.825 0 14 0ZM13.7 3.1875L8.3975 6.5025C8.1575 6.6525 7.8425 6.6525 7.6025 6.5025L2.3 3.1875C2.1125 3.0675 2 2.865 2 2.6475C2 2.145 2.5475 1.845 2.975 2.1075L8 5.25L13.025 2.1075C13.4525 1.845 14 2.145 14 2.6475C14 2.865 13.8875 3.0675 13.7 3.1875Z"/></symbol><symbol id="icon-tick" viewBox="0 0 13 10"><path d="M1.95703 4.75166L1.88825 4.68604L1.81923 4.75141L0.93123 5.59258L0.854858 5.66492L0.930974 5.73753L4.42671 9.07236L4.49574 9.1382L4.56476 9.07236L12.069 1.91352L12.1449 1.84116L12.069 1.76881L11.1873 0.927644L11.1183 0.861826L11.0493 0.927611L4.49577 7.17353L1.95703 4.75166Z" stroke="white" stroke-width="0.2"/></symbol><symbol id="icon-send" viewBox="0 0 24 24"><path d="M24 0L0 13.5L7.66994 16.3407L19.5 5.25002L10.5017 17.3896L10.509 17.3923L10.5 17.3896V24.0001L14.8013 18.982L20.2501 21.0001L24 0Z" fill="white"/></symbol><symbol id="icon-menu" viewBox="0 0 24 16"><path fill-rule="evenodd" clip-rule="evenodd" d="M0 2.66667V0H24V2.66667H0ZM0 9.33333H24V6.66667H0V9.33333ZM0 16H24V13.3333H0V16Z"/></symbol><symbol id="icon-cross" viewBox="0 0 19 19"><path d="M18.6667 1.88L16.7867 0L9.33333 7.45334L1.88 0L0 1.88L7.45334 9.33333L0 16.7867L1.88 18.6667L9.33333 11.2133L16.7867 18.6667L18.6667 16.7867L11.2133 9.33333L18.6667 1.88Z"/></symbol></defs> </svg>

